<svg xmlns="http://www.w3.org/2000/svg" xmlns:xlink="http://www.w3.org/1999/xlink" version="1.1" x="0px" y="0px" viewBox="0 0 100 125" style="enable-background:new 0 0 100 100;" xml:space="preserve"><g><path d="M80.5,5.2H19.52c-0.55,0-1,0.45-1,1v87.6c0,0.55,0.45,1,1,1H80.5c0.55,0,1-0.45,1-1V6.2C81.5,5.65,81.06,5.2,80.5,5.2z    M79.5,92.8H20.52V7.2H79.5V92.8z"/><path d="M24.52,89.8H75.5c0.55,0,1-0.45,1-1V60.35c0-0.55-0.45-1-1-1H24.52c-0.55,0-1,0.45-1,1V88.8   C23.52,89.35,23.96,89.8,24.52,89.8z M25.52,61.35H74.5V87.8H25.52V61.35z"/><path d="M24.52,56.65H75.5c0.55,0,1-0.45,1-1V11.2c0-0.55-0.45-1-1-1H24.52c-0.55,0-1,0.45-1,1v44.45   C23.52,56.2,23.96,56.65,24.52,56.65z M25.52,34.42h13.85v20.22H25.52V34.42z M59.36,34.42v20.22h-18V34.42H59.36z M41.36,32.42   V12.2h18v20.22H41.36z M61.36,54.65V34.42H74.5v20.22H61.36z M74.5,32.42H61.36V12.2H74.5V32.42z M39.36,12.2v20.22H25.52V12.2   H39.36z"/><path d="M66.75,20.09l2.26,4.89c0.17,0.37,0.53,0.58,0.91,0.58c0.14,0,0.28-0.03,0.42-0.09c0.5-0.23,0.72-0.83,0.49-1.33   l-2.26-4.89c-0.23-0.5-0.82-0.72-1.33-0.49C66.74,19,66.52,19.59,66.75,20.09z"/><path d="M70.14,20.09c0.17,0.37,0.53,0.58,0.91,0.58c0.14,0,0.28-0.03,0.42-0.09c0.5-0.23,0.72-0.83,0.49-1.33l-2.26-4.89   c-0.23-0.5-0.83-0.72-1.33-0.49c-0.5,0.23-0.72,0.83-0.49,1.33L70.14,20.09z"/></g><text x="0" y="115" fill="#000000" font-size="5px" font-weight="bold" font-family="'Helvetica Neue', Helvetica, Arial-Unicode, Arial, Sans-serif"></text><text x="0" y="120" fill="#000000" font-size="5px" font-weight="bold" font-family="'Helvetica Neue', Helvetica, Arial-Unicode, Arial, Sans-serif"></text></svg>