<svg xmlns="http://www.w3.org/2000/svg" xmlns:xlink="http://www.w3.org/1999/xlink" version="1.1" x="0px" y="0px" viewBox="0 0 68 85" style="enable-background:new 0 0 68 68;" xml:space="preserve"><g><path d="M34.8,37.2c0-0.4-0.4-0.6-0.8-0.4L21.6,44c-0.2,0.1-0.3,0.3-0.3,0.4l0,17c0,0.4,0.4,0.6,0.8,0.4l12.4-7.2   c0.2-0.1,0.3-0.3,0.3-0.4c0,0,0,0,0,0C34.9,54.1,34.8,37.4,34.8,37.2z M33.9,53.4c-0.1-0.1-2.4-1.4-2.3-1.3l0-12.6l2.3-1.3   C33.8,39.7,33.8,32.4,33.9,53.4z M31.1,52.9c0.1,0.1,2.4,1.4,2.3,1.3l-10.9,6.3l0-2.7L31.1,52.9z M30.6,40l0,12l-8.2,4.7l0-12   L30.6,40z"/><path d="M37.2,33.1l12.4-7.2c0.2-0.1,0.3-0.3,0.3-0.4c0,0,0,0,0,0c0-0.1,0-16.8,0-17c0-0.4-0.4-0.6-0.8-0.4l-12.4,7.2   c-0.2,0.1-0.3,0.3-0.3,0.4l0,17C36.5,33.1,36.9,33.3,37.2,33.1z M37.5,31.8l0-2.7l8.6-5c0.1,0.1,2.4,1.4,2.3,1.3   C45.7,27,42.4,29,37.5,31.8z M48.9,24.6c-0.1-0.1-2.4-1.4-2.3-1.3l0-12.6l2.3-1.3C48.9,10.9,48.8,3.7,48.9,24.6z M45.6,11.3l0,12   L37.5,28l0-12L45.6,11.3z"/><path d="M22.1,41.8L22.1,41.8c0.2-0.1,6.7-3.9,12.5-7.2c0.2-0.1,0.3-0.3,0.3-0.4c0,0,0,0,0,0c0-0.1,0-16.8,0-17   c0-0.2-0.1-0.3-0.3-0.4c-0.2-0.1-0.3-0.1-0.5,0l-12.4,7.2c-0.2,0.1-0.3,0.3-0.3,0.4l0,17C21.4,41.7,21.7,42,22.1,41.8z M31,32.9   l2.3,1.3l-10.9,6.3l0-2.7L31,32.9z M33.8,33.3L31.5,32l0-12.6l2.3-1.3C33.8,19.6,33.8,12.4,33.8,33.3z M30.5,20l0,12l-8.2,4.7l0-12   L30.5,20z"/><path d="M49.9,28.5c0-0.4-0.4-0.6-0.8-0.4l-12.4,7.2c-0.2,0.1-0.3,0.3-0.3,0.4l0,17c0,0.4,0.4,0.6,0.8,0.4L49.7,46   c0.2-0.1,0.3-0.3,0.3-0.4c0,0,0,0,0,0s0,0,0,0L49.9,28.5z M37.5,51.9l0-2.7l8.6-5c0.1,0.1,2.4,1.4,2.3,1.3   C47.4,46.2,38.9,51.1,37.5,51.9z M48.9,44.7l-2.3-1.3l0-12.6l2.3-1.3C49,49.2,48.9,43.6,48.9,44.7z M45.6,31.3l0,12L37.5,48l0-12   L45.6,31.3z"/><path d="M15.4,20.9C15.4,20.9,15.4,20.9,15.4,20.9C15.4,20.9,15.4,20.9,15.4,20.9c0,2.4,0,7.3,0.1,43.1c0,0.2,0.1,0.3,0.2,0.4   l3.3,1.9c0,0,0,0,0,0c0,0,0,0,0,0c0.2,0.1,0.3,0.1,0.5,0l32.8-18.9c0.2-0.1,0.3-0.3,0.3-0.4L52.5,3.9c0-0.2-0.1-0.4-0.2-0.4l0,0   c-1.8-1-3.4-2-3.3-1.9c-0.2-0.1-0.3-0.1-0.5,0C44.6,3.8,18.2,19,15.6,20.5C15.5,20.6,15.4,20.8,15.4,20.9z M18.7,23.1   c0.1,39.5,0.1,36.7,0.1,37.7c-0.1-0.1-2.4-1.4-2.3-1.3l-0.1-37.7C16.5,21.9,18.8,23.2,18.7,23.1z M19.8,65.1   c-0.1-23.5-0.1-26.6-0.1-42c8.1-4.7,23.7-13.7,31.8-18.4l0.1,42L19.8,65.1z M45.2,4.6l2.3,1.3c-1,0.6-25,14.4-28.3,16.3l-2.3-1.3   L45.2,4.6z"/><path d="M39.7,58.6c-0.2-0.5-1-0.6-1.2,0c-0.3,1-1.2,1.8-2.2,2.2c-0.6,0.2-0.6,1,0,1.2c1.1,0.4,1.9,1.3,2.2,2.2   c0.2,0.5,1,0.6,1.2,0c0.4-1,1.2-1.9,2.2-2.2c0,0,0,0,0,0c0.6-0.2,0.6-1,0-1.2C40.9,60.4,40.1,59.6,39.7,58.6z M39.1,63.8   c-0.4-1-1.3-1.9-2.4-2.4c1.1-0.5,1.9-1.3,2.4-2.4c0.4,1,1.3,1.9,2.3,2.4C40.4,61.9,39.5,62.7,39.1,63.8z"/><path d="M15.8,13.1c1.1,0.4,1.9,1.3,2.2,2.2c0.2,0.5,1,0.6,1.2,0c0.4-1,1.2-1.9,2.2-2.2c0,0,0,0,0,0c0.6-0.2,0.6-1,0-1.2   c-1-0.4-1.9-1.2-2.2-2.2c-0.2-0.5-1-0.6-1.2,0c-0.4,1-1.2,1.8-2.2,2.2C15.2,12.1,15.2,12.9,15.8,13.1z M18.7,10.2   c0.4,1,1.3,1.9,2.3,2.4c-1.1,0.5-1.9,1.3-2.3,2.4c-0.4-1-1.2-1.9-2.4-2.4C17.4,12,18.2,11.2,18.7,10.2z"/></g><text x="0" y="83" fill="#000000" font-size="5px" font-weight="bold" font-family="'Helvetica Neue', Helvetica, Arial-Unicode, Arial, Sans-serif"></text><text x="0" y="88" fill="#000000" font-size="5px" font-weight="bold" font-family="'Helvetica Neue', Helvetica, Arial-Unicode, Arial, Sans-serif"></text></svg>