<?xml version="1.0" encoding="UTF-8"?>
<svg id="Layer_2" xmlns="http://www.w3.org/2000/svg" width="595.3" height="841.9" version="1.1" viewBox="0 0 595.3 841.9">
  <!-- Generator: Adobe Illustrator 29.1.0, SVG Export Plug-In . SVG Version: 2.1.0 Build 142)  -->
  <defs>
    <style>
      .st0 {
        fill: none;
        stroke: #231f20;
        stroke-miterlimit: 10;
      }
    </style>
  </defs>
  <polyline class="st0" points="419.3 119.3 419.3 68.6 7.6 306.2 7.6 782.4 43.1 760.3"/>
  <polyline class="st0" points="407 111.7 39.3 320.2 39.3 325.3"/>
  <line class="st0" x1="249.5" y1="608.2" x2="392.2" y2="526.1"/>
  <line class="st0" x1="249.5" y1="642.9" x2="398.6" y2="555.4"/>
  <polygon class="st0" points="66.2 352 66.2 728 227 665.4 227 290.9 214.3 295.7 66.2 352"/>
  <polyline class="st0" points="214.3 295.7 214.3 659.5 66.2 716.3"/>
  <line class="st0" x1="227" y1="665.4" x2="214.3" y2="659.5"/>
  <polygon class="st0" points="43.1 760.3 43.1 334.6 240.1 260.6 249.6 257 249.6 682.6 43.1 760.3"/>
  <polyline class="st0" points="36.4 325.7 35.4 756.8 43.1 760.3"/>
  <polygon class="st0" points="415.3 163 415.3 538.2 554.5 618.6 554.5 244.4 415.3 163"/>
  <polyline class="st0" points="569.8 653.9 567.7 652.7 392.3 551.5 391.7 121.8 569.5 226.2"/>
  <polyline class="st0" points="569.5 654.2 569.5 226.1 551.9 215.9"/>
  <line class="st0" x1="569.5" y1="226.1" x2="586" y2="213.2"/>
  <polyline class="st0" points="391.5 121.6 406.8 111.8 586 213.2 588.7 641.6 568.8 654.2"/>
  <polyline class="st0" points="43.1 334.6 36.4 325.7 232.8 253.4 249.6 257"/>
</svg>