<svg xmlns="http://www.w3.org/2000/svg" version="1.1" viewBox="-5.0 -10.0 110.0 135.0">
 <path d="m77 96-61.5-19.801v-0.10156h-0.10156v-1.8984h0.10156l-0.10156-0.10156 2.6992-2.3984 0.10156 0.10156v-0.10156l61.301 19.699v-65.5l-61.301-19.797 0.10156-0.19922 61.5 19.801 1.8984-1.8008 0.10156 0.19922-2 1.8008v65.5l1.8008-1.6016v-3.1016h0.10156v-0.10156l2.6992 0.80078v0.10156h0.10156v2h-0.10156l0.10156 0.10156-7.3047 6.3984zm-61.301-20 61.301 19.801v-1.8008l-61.301-19.699zm61.5 18v1.6992l7.1992-6.1992v-1.6992zm-61.398-19.898 61.301 19.699 2.5-2.1992-61.301-19.703zm66.098 12.699v2.8008l2.3984-2.1016zm-3 3.5977-59.699-19.098v-64-0.10156h0.10156l59.602 19.301 0.10156 0.10156v63.801c-0.003906-0.10156-0.003906-0.003906-0.10547-0.003906zm-59.5-19.297 59.398 19.102 0.003906-63.703-59.402-19.199zm58.801 18.5-58.301-18.902-0.10156-0.10156 0.003906-62.598v-0.10156h0.10156l58.301 18.801 0.10156 0.10156v62.699c-0.003907 0-0.003907 0-0.10547 0.10156 0.10156 0 0.10156 0 0 0zm-58.199-19 58.102 18.699v-62.402l-58.102-18.797zm40.5-2.7031-28.5-35.797 0.19922-0.10156 28.5 35.801zm-3.5-16.699-15.199-19.098 0.19922-0.10156 15.199 19.102z"/>
 <path d="m77 96.199-61.5-19.801c-0.10156 0-0.19922-0.10156-0.19922-0.19922v-2c0-0.10156 0-0.10156 0.10156-0.19922l2.6016-2.3008-0.003906-65.699c0-0.10156 0-0.10156 0.10156-0.19922l2.0977-1.8008h0.30078l61.301 19.801c0.10156 0 0.19922 0.10156 0.19922 0.19922v62.5l2.6016 0.80078c0.10156 0 0.19922 0.10156 0.19922 0.19922v2c0 0.10156 0 0.10156-0.10156 0.19922l-7.3984 6.3984c-0.19922 0.10156-0.19922 0.10156-0.30078 0.10156zm-61.199-20.199 61.199 19.699 7.1992-6.1992v-1.8008l-2.6016-0.80078c-0.10156 0-0.19922-0.10156-0.19922-0.19922v-62.5l-61-19.699-2 1.6992v65.602c0 0.10156 0 0.10156-0.10156 0.19922l-2.6016 2.3008z"/>
<text x="0.0" y="117.5" font-size="5.0" font-weight="bold" font-family="Arbeit Regular, Helvetica, Arial-Unicode, Arial, Sans-serif" fill="#000000"></text><text x="0.0" y="122.5" font-size="5.0" font-weight="bold" font-family="Arbeit Regular, Helvetica, Arial-Unicode, Arial, Sans-serif" fill="#000000"></text></svg>